<?xml version="1.0" encoding="UTF-8" standalone="no"?>
<svg xmlns="http://www.w3.org/2000/svg" width="1024" height="1024" viewBox="0 0 1024 1024">
  <rect width="1024" height="1024" fill="#121212"/>
  <g transform="translate(512, 512)">
    <circle r="400" fill="#1a1a1a" stroke="#333" stroke-width="10"/>
    
    <!-- Map Pin -->
    <path d="M0 -250 C-120 -250 -160 -150 -160 -100 C-160 0 0 200 0 200 C0 200 160 0 160 -100 C160 -150 120 -250 0 -250 Z" 
          fill="#bb0000" stroke="#880000" stroke-width="10"/>
    
    <!-- Wifi Signal -->
    <path d="M0 50 C-100 50 -175 -25 -200 -100 M0 50 C100 50 175 -25 200 -100" 
          stroke="#3366cc" stroke-width="30" fill="none"/>
    <path d="M0 50 C-50 50 -85 0 -100 -50 M0 50 C50 50 85 0 100 -50" 
          stroke="#3366cc" stroke-width="25" fill="none"/>
    <circle cx="0" cy="50" r="20" fill="#3366cc"/>
    
    <!-- IP Text -->
    <text x="0" y="140" font-family="Arial, sans-serif" font-weight="bold" font-size="130" fill="white" text-anchor="middle">doxxer</text>
  </g>
</svg>
